<?xml version="1.0" encoding="UTF-8"?>
<svg id="_レイヤー_2" data-name="レイヤー 2" xmlns="http://www.w3.org/2000/svg" viewBox="0 0 141.97 141.97">
  <defs>
    <style>
      .cls-1 {
        fill: #d5b498;
        stroke-width: 0px;
      }
    </style>
  </defs>
  <g id="_レイヤー_1-2" data-name="レイヤー 1">
    <path class="cls-1" d="M70.99,141.97c-1.31,0-2.5-.79-3-2.01-15.71-37.93-28.04-50.26-65.98-65.98-1.21-.5-2.01-1.69-2.01-3s.79-2.5,2.01-3C39.94,52.27,52.27,39.94,67.98,2.01c.5-1.21,1.69-2.01,3-2.01s2.5.79,3,2.01c15.71,37.93,28.04,50.26,65.98,65.98,1.21.5,2.01,1.69,2.01,3s-.79,2.5-2.01,3c-37.93,15.71-50.26,28.04-65.98,65.98-.5,1.21-1.69,2.01-3,2.01ZM11.51,70.99c31.93,14.14,45.33,27.55,59.47,59.47,14.14-31.93,27.55-45.33,59.47-59.47-31.93-14.14-45.33-27.55-59.47-59.47-14.14,31.93-27.55,45.33-59.47,59.47Z"/>
  </g>
</svg>