<?xml version="1.0" encoding="UTF-8"?>
<svg id="_レイヤー_2" data-name="レイヤー 2" xmlns="http://www.w3.org/2000/svg" viewBox="0 0 673.05 585.69">
  <defs>
    <style>
      .cls-1 {
        font-size: 11px;
      }

      .cls-1, .cls-2, .cls-3 {
        font-family: KozGoPr6N-Regular-90ms-RKSJ-H, 'Kozuka Gothic Pr6N';
      }

      .cls-1, .cls-4 {
        fill: #aa7e19;
      }

      .cls-5 {
        fill: #fff9f2;
      }

      .cls-5, .cls-6, .cls-4, .cls-7 {
        stroke-width: 0px;
      }

      .cls-2 {
        fill: #fff;
        font-size: 18px;
      }

      .cls-6 {
        fill: #e1e1e1;
      }

      .cls-4 {
        opacity: .79;
      }

      .cls-8 {
        letter-spacing: .25em;
      }

      .cls-7, .cls-9, .cls-10, .cls-11, .cls-12, .cls-13, .cls-14, .cls-15, .cls-16 {
        fill: none;
      }

      .cls-9 {
        stroke-dasharray: 0 0 15.1 15.1;
      }

      .cls-9, .cls-10, .cls-11, .cls-12, .cls-13, .cls-14, .cls-15, .cls-16 {
        stroke-miterlimit: 10;
      }

      .cls-9, .cls-10, .cls-11, .cls-12, .cls-14 {
        stroke: #4d4d4d;
      }

      .cls-9, .cls-14, .cls-15 {
        stroke-width: 4px;
      }

      .cls-10 {
        stroke-width: 2px;
      }

      .cls-11, .cls-12 {
        stroke-width: 7px;
      }

      .cls-12 {
        stroke-dasharray: 0 0 2.01 7.03;
      }

      .cls-13 {
        stroke: #000;
        stroke-width: 5px;
      }

      .cls-3 {
        font-size: 8px;
      }

      .cls-15 {
        stroke: #fff;
      }

      .cls-16 {
        stroke: #e1e1e1;
        stroke-width: 10px;
      }
    </style>
  </defs>
  <g id="_レイヤー_1-2" data-name="レイヤー 1">
    <g>
      <rect class="cls-5" x="27.37" y="86.55" width="600" height="450"/>
      <path class="cls-16" d="M336.49,23.09c9.86,106.33-112.82,294.7-112.82,294.7l88.54,144,17.16,74.77"/>
      <line class="cls-7" x1="7.47" y1="451.74" x2="673.05" y2="336.2"/>
      <g>
        <polyline class="cls-10" points="274.6 149.42 208.4 344.57 161.51 428.3 2.44 583.18"/>
        <g>
          <line class="cls-11" x1="274.6" y1="149.42" x2="274.28" y2="150.37"/>
          <polyline class="cls-12" points="272.02 157.02 208.4 344.57 161.51 428.3 5.68 580.03"/>
          <line class="cls-11" x1="3.16" y1="582.48" x2="2.44" y2="583.18"/>
        </g>
      </g>
      <line class="cls-16" x1="502.26" y1="555.55" x2="433.6" y2="6.34"/>
      <line class="cls-16" x1="367.47" y1=".48" x2="329.37" y2="393.97"/>
      <rect class="cls-4" x="353.88" y="187.22" width="47.72" height="47.72" rx="11.07" ry="11.07"/>
      <g>
        <line class="cls-13" x1="35.72" y1="29.76" x2="411.62" y2="540.39"/>
        <line class="cls-15" x1="35.72" y1="29.76" x2="411.62" y2="540.39"/>
        <g>
          <line class="cls-14" x1="35.72" y1="29.76" x2="40.16" y2="35.8"/>
          <line class="cls-9" x1="49.11" y1="47.96" x2="402.7" y2="528.27"/>
          <line class="cls-14" x1="407.18" y1="534.35" x2="411.62" y2="540.39"/>
        </g>
      </g>
      <g>
        <rect class="cls-6" x="313.95" y="453.5" width="82.47" height="20.43" rx="6.61" ry="6.61" transform="translate(518.05 -97.23) rotate(53.64)"/>
        <text class="cls-3" transform="translate(341.05 449.47) rotate(53.64)"><tspan x="0" y="0">J</tspan><tspan class="cls-8" x="3.14" y="0">R</tspan><tspan x="9.75" y="0">川越駅</tspan></text>
      </g>
      <rect class="cls-6" x="221.95" y="172.31" width="82.47" height="20.43" rx="6.61" ry="6.61" transform="translate(3.1 369.43) rotate(-70.44)"/>
      <text class="cls-3" transform="translate(253.69 217.31) rotate(-70.44)"><tspan x="0" y="0">西武新宿線本川越駅</tspan></text>
      <g>
        <rect class="cls-6" x="373.51" y="439.03" width="30.79" height="20.43" rx="4.04" ry="4.04"/>
        <text class="cls-3" transform="translate(380.69 451.68)"><tspan x="0" y="0">東口</tspan></text>
      </g>
      <g>
        <rect class="cls-6" x="291.68" y="162.09" width="30.79" height="20.43" rx="4.04" ry="4.04"/>
        <text class="cls-3" transform="translate(298.86 174.74)"><tspan x="0" y="0">東口</tspan></text>
      </g>
      <text class="cls-2" transform="translate(379.73 206.13)"><tspan x="0" y="0">★</tspan></text>
      <text class="cls-1" transform="translate(407.47 203.6)"><tspan x="0" y="0">丸広百貨店川越店</tspan></text>
    </g>
  </g>
</svg>